<svg width="385" height="85" viewBox="0 0 385 85" fill="none" xmlns="http://www.w3.org/2000/svg">
<g clip-path="url(#clip0)">
<rect width="385" height="85" fill="white"/>
<path d="M34.138 16.4196C29.8892 15.9123 27.3619 15.1966 24.1242 17.8456C22.2486 19.3802 21.4257 23.6474 21.082 26.0532C19.9489 33.9848 32.1489 36.596 37.5605 38.0317C43.0485 39.4877 51.6353 40.2427 53.2467 46.366C54.6679 51.7666 51.2934 52.3131 46.5919 53.1792C39.3631 54.5108 31.7438 52.8367 24.6312 54.1299C22.3085 54.5522 26.008 56.3348 26.4058 56.4749C29.1565 57.4434 31.8657 57.489 34.7401 57.489C39.1894 57.489 42.5716 56.9149 46.7187 55.2073C52.6877 52.7495 59.5679 53.1314 65.3837 50.0737C68.5469 48.4105 71.6849 46.5339 74.7637 44.7182C75.4379 44.3206 78.5866 42.8274 75.9679 42.9119C70.2316 43.0969 61.045 46.8444 60.9472 53.4961C60.8214 62.0469 67.9055 60.9114 74.7637 60.9114C76.8702 60.9114 79.5619 61.4494 80.8797 59.3903C82.4609 56.9197 82.0522 53.6163 82.0522 50.8342C82.0522 44.5181 81.9687 40.608 75.0172 40.9471C73.5267 41.0199 79.7453 42.088 80.6579 42.088C82.8527 42.088 87.7697 41.1066 89.7844 42.2147C91.4918 43.1538 90.4854 58.0079 92.7632 57.5523C93.2407 57.4568 92.8798 50.5323 92.89 49.9469C92.954 46.2664 93.1674 43.708 96.9462 42.6584C104.717 40.4997 104.381 47.5426 106.833 53.1158C108.19 56.1984 107.721 50.7938 107.721 49.9469C107.721 47.4105 106.556 41.3991 108.418 39.331C114.432 32.6489 119.372 48.0077 120.27 51.2145C121.623 56.0488 120.762 58.7423 126.227 57.9326C134.405 56.7211 152.034 49.2009 149.138 38.0317C147.324 31.0348 139.894 32.1395 137.192 37.7782C135.411 41.4935 133.193 49.6221 137.477 52.5137C139.795 54.0783 144.175 54.7903 146.825 53.6862C149.851 52.4254 150.743 47.8644 151.325 45.0351C151.378 44.7781 151.642 42.0583 151.642 42.7534C151.642 44.7743 151.717 46.4903 152.909 48.2357C156.574 53.5988 164.261 51.003 167.613 46.6512C169.076 44.7521 175.697 30.7876 170.655 30.2362C159.344 28.999 153.512 43.1422 157.599 52.0384C158.938 54.9517 162.368 55.2653 165.015 53.9081C168.266 52.2407 170.195 47.0558 170.465 43.609C170.498 43.192 170.225 40.0884 171.067 41.4225C173.439 45.1776 174.033 49.8219 176.74 53.4961C178.242 55.5349 180.765 56.6983 183.046 54.9538C186.853 52.0427 186.966 46.0934 187.007 41.7711C187.057 36.4758 186.918 39.6034 187.324 42.9119C187.569 44.9039 188.242 51.81 188.845 46.0808C189.233 42.3919 190.474 38.1578 193.535 35.7501C195.459 34.2371 200.838 32.8358 202.662 35.2431C205.826 39.4199 205.404 47.1776 205.704 52.1018C205.759 53.0074 205.207 57.7529 206.718 58.0277C214.76 59.4899 223.826 51.752 229.439 47.3484C244.38 35.6276 263.03 26.6739 272.632 9.47968C274.292 6.50727 275.913 2.59714 275.991 -0.882723C276.051 -3.60075 269.576 -0.242704 268.861 0.0996454C258.796 4.91313 248.503 11.2814 241.259 19.9055C238.565 23.1127 236.396 27.4198 239.675 30.9333C241.289 32.6629 243.234 33.5726 245.379 34.4825C250.275 36.5597 255.13 38.7275 260.019 40.8204C263.87 42.4685 267.795 43.8925 271.681 45.447C273.93 46.3468 277.235 47.3826 278.399 49.7885C280.515 54.1613 273.491 57.6463 270.667 59.1368C264.841 62.2116 258.648 63.193 252.129 63.193C250.622 63.193 255.092 62.6172 256.533 62.179C261.023 60.8142 265.457 59.0996 269.748 57.2038C276.902 54.0426 283.694 50.4692 284.737 42.088C285.687 34.4537 285.498 25.9609 284.23 18.3527C282.895 10.3412 282.816 22.793 282.836 24.6588C282.922 32.8746 284.796 40.3738 286.987 48.2357C288.149 52.4046 287.927 49.1189 287.969 46.9681C288.013 44.716 287.812 39.8307 290.599 38.9824C293.899 37.9783 295.415 42.6239 296.399 44.94C297.093 46.5746 300.27 58.0425 300.518 51.468C300.669 47.4627 304.606 42.6369 308.441 41.8344C312.975 40.8853 316.318 38.9751 318.074 44.2428C318.597 45.8127 313.065 50.2114 312.338 51.975C311.906 53.0257 313.152 52.9236 313.764 52.7989C315.591 52.4273 316.697 50.8671 317.25 49.1864C317.857 47.3446 317.63 45.2655 317.63 43.3555C317.63 41.9278 318.209 46.1766 318.803 47.4751C319.247 48.4463 320.817 51.7824 321.877 52.2285C323.898 53.0797 323.311 43.7888 323.303 43.4189C323.161 36.7023 321.627 30.3869 320.736 23.7715C320.526 22.2137 319.253 14.9977 320.578 20.7928C322.099 27.4508 322.599 33.8707 323.335 40.6302C323.373 40.9795 323.738 47.1381 324.856 45.5738C327.29 42.1652 330.091 39.5396 333.158 36.7008C334.255 35.6857 338.331 30.8103 336.01 35.0846C334.228 38.368 329.138 41.2987 328.722 45.1301C328.561 46.6111 333.014 47.0787 333.982 47.8237C334.678 48.3591 335.23 50.4687 335.313 50.0737C335.897 47.3008 340.856 46.3344 342.95 45.5104C344.7 44.8221 347.618 44.2792 348.306 42.2147C348.491 41.6585 348.768 39.9334 347.957 39.838C341.787 39.1121 339.876 40.9496 339.876 47.0949C339.876 52.9177 351.715 52.5412 351.855 50.5173C352.037 47.8817 352.648 46.0012 354.485 44.0527C354.648 43.8795 359.018 37.7782 357.559 37.7782C356.601 37.7782 353.488 43.9642 353.091 44.9083C352.327 46.7222 351.99 49.3256 353.122 51.0877C354.618 53.4143 360.272 52.5405 362.122 51.3412C371.987 44.9475 373.186 28.0902 370.361 17.6238C369.376 13.9714 367.475 19.9747 367.224 21.0463C365.242 29.5265 361.82 38.3698 363.073 47.2216C363.962 53.4994 369.873 57.7847 375.654 59.3903C376.901 59.7368 378.634 59.711 379.234 60.9114" stroke="black" stroke-width="3" stroke-linecap="round"/>
</g>
<defs>
<clipPath id="clip0">
<rect width="385" height="85" fill="white"/>
</clipPath>
</defs>
</svg>
